<svg xmlns="http://www.w3.org/2000/svg" version="1.1" xmlns:xlink="http://www.w3.org/1999/xlink" xmlns:svgjs="http://svgjs.dev/svgjs" width="600" height="600" viewBox="0 0 1000 1000">
    <g transform="matrix(0.7,0,0,0.7,149.85055235063055,253.4497975708502)"><svg viewBox="0 0 350 247" data-background-color="transparent" preserveAspectRatio="xMidYMid meet" height="705" width="1000" xmlns="http://www.w3.org/2000/svg" xmlns:xlink="http://www.w3.org/1999/xlink">
    <g id="tight-bounds" transform="matrix(1,0,0,1,0.0747238246847246,-0.09999999999999432)"><svg viewBox="0 0 349.85055235063055 247.2" height="247.2" width="349.85055235063055">
    <g>
    <svg viewBox="0 0 397.4975999999999 280.86680458208764" height="247.2" width="349.85055235063055"><g><rect width="397.4975999999999" height="8.602579265481337" x="0" y="154.3520487498189" fill="currentColor" opacity="1" stroke-width="0" stroke="transparent" fill-opacity="1" class="rect-r$-0" data-fill-palette-color="secondary" rx="1%" id="r$-0" data-palette-color="currentColor"></rect></g><g transform="matrix(1,0,0,1,0.9887999999999693,185.47446902441365)"><svg viewBox="0 0 395.52 95.39233555767399" height="95.39233555767399" width="395.52"><g id="textblocktransform"><svg viewBox="0 0 395.52 95.39233555767399" height="95.39233555767399" width="395.52" id="textblock"><g><svg viewBox="0 0 395.52 95.39233555767399" height="95.39233555767399" width="395.52"><g transform="matrix(1,0,0,1,0,0)"><svg width="395.52" viewBox="0.45 -29.6 157.33 37.95" height="95.39233555767399" data-palette-color="currentColor"><path d="M13.55-2.9L13.55-2.9Q13.7-2.9 13.7-2.6 13.7-2.3 13-1.6L13-1.6 12.5-0.85Q11.15 1.2 10.53 1.55 9.9 1.9 9.53 1.9 9.15 1.9 8.38 1.73 7.6 1.55 7.58 1.35 7.55 1.15 7.55 0.5 7.55-0.15 8.5-2.63 9.45-5.1 10.7-7.5L10.7-7.5Q13-12 15.3-16.2L15.3-16.2Q15.75-17.05 15.75-17.53 15.75-18 15.6-18.25L15.6-18.25Q15.9-19.7 18.07-21.95 20.25-24.2 22.05-24.2L22.05-24.2Q22.85-24.2 24-23.58 25.15-22.95 25-21.95L25-21.95Q24.65-22.2 24.35-22.2L24.35-22.2Q22.25-22.2 19.1-18.1L19.1-18.1Q13.85-11.3 10.2-2.5L10.2-2.5Q9.8-1.45 9.8-1.07 9.8-0.7 9.8-0.6L9.8-0.6Q10-0.1 10.63-0.3 11.25-0.5 11.8-1.2L11.8-1.2Q13.1-2.9 13.55-2.9ZM32.6-24.45L32.6-24.45Q33-25.1 33.8-25.95L33.8-25.95Q31.6-26 27.2-26.35L27.2-26.35Q21.75-26.8 19.75-26.8 17.75-26.8 14.2-26.45L14.2-26.45Q9.45-25.8 6.03-23.83 2.6-21.85 1.95-18.85L1.95-18.85Q1.85-18.55 1.85-18.13 1.85-17.7 2.13-17.1 2.4-16.5 2.8-16.15 3.2-15.8 4.03-15.3 4.85-14.8 5.13-14.58 5.4-14.35 5.23-14.2 5.05-14.05 4.88-14.05 4.7-14.05 4.5-14.1L4.5-14.1Q2.8-14.6 1.63-15.98 0.45-17.35 0.45-18.28 0.45-19.2 0.7-19.85L0.7-19.85Q0.7-20.4 0.75-20.65L0.75-20.65Q1.5-24.2 5.3-26.15L5.3-26.15Q9.85-28.5 16.5-28.5L16.5-28.5Q20.55-28.5 27.13-27.6 33.7-26.7 34.45-26.7L34.45-26.7Q35.8-28.2 36.5-28.25L36.5-28.25Q36.75-28.3 37.2-28.3 37.65-28.3 38-27.98 38.35-27.65 38.35-27.3 38.35-26.95 38.05-26.6 37.75-26.25 36.83-25.58 35.9-24.9 35.35-24.35L35.35-24.35Q32.75-21.75 32.75-19.8L32.75-19.8Q32.75-18.95 33.1-18.43 33.45-17.9 33.05-17.68 32.65-17.45 32.2-18L32.2-18Q31.7-18.4 31.7-20.55 31.7-22.7 32.6-24.45ZM35.95-29.25L35.95-29.25Q36.85-29.6 37.5-29.6L37.5-29.6Q39.7-29.6 40.4-28.4L40.4-28.4Q40.8-27.8 40.8-27.35L40.8-27.35Q40.8-23.95 35.1-18.8L35.1-18.8Q30.05-14.35 25.8-11.15L25.8-11.15Q24.4-8 22.9-3.4L22.9-3.4Q24.7-5.6 27.45-8.5L27.45-8.5Q33-14.25 35.2-14.25L35.2-14.25Q36.3-14.25 36.35-13.15L36.35-13.15Q36.45-12 35.87-10.95 35.3-9.9 34.8-9L34.8-9Q32.45-5.1 32.45-2.05L32.45-2.05Q32.45-1.05 32.85-0.6L32.85-0.6Q33.55 0.2 34.85-0.5 36.15-1.2 38.47-3.3 40.8-5.4 42.25-7.4L42.25-7.4Q42.5-7.65 42.72-7.53 42.95-7.4 42.95-7.28 42.95-7.15 42.85-7L42.85-7Q42.1-5.65 40.15-3.58 38.2-1.5 37-0.6L37-0.6Q34.7 1.15 32.6 1.15L32.6 1.15Q30.7 1.15 30.05-0.75L30.05-0.75Q29.9-1.2 29.9-1.83 29.9-2.45 30-3.15L30-3.15Q30.25-5.25 32.65-9.7L32.65-9.7Q33.15-10.6 33.15-10.98 33.15-11.35 32.75-11.35L32.75-11.35Q31.95-11.35 29.65-9.35L29.65-9.35Q28.1-7.9 25.07-3.88 22.05 0.15 21.65 0.4L21.65 0.4Q19.85 1.3 19.42 1.3 19 1.3 18.95 1.18 18.9 1.05 19 0.85 19.1 0.65 19.8-1.35L19.8-1.35Q22.15-8 23-10.15L23-10.15Q21.35-8.05 18.9-5.4L18.9-5.4Q18.5-5 18.5-5.58 18.5-6.15 18.95-6.75 19.4-7.35 20.82-9.08 22.25-10.8 22.85-11.65L22.85-11.65Q22.4-11.9 22.37-12.35 22.35-12.8 22.67-12.98 23-13.15 23.75-12.85L23.75-12.85Q24.25-13.55 24.65-14.4L24.65-14.4Q30.6-27.2 35.95-29.25ZM38.75-25.5L38.75-25.5Q39.4-26.7 39.4-27.53 39.4-28.35 38.67-28.35 37.95-28.35 36.75-27.45L36.75-27.45Q31.25-23.25 26.8-13.4L26.8-13.4Q30.05-15.5 33.6-19 37.15-22.5 38.75-25.5ZM53.14-14.55L53.14-14.55Q55.84-14.55 55.84-11.95L55.84-11.95Q55.84-10.6 55.09-9.75L55.09-9.75Q53.84-7.9 51.05-6.53 48.24-5.15 46.3-5L46.3-5Q45.59-4.95 45.55-5.4L45.55-5.4Q45.49-5.6 45.67-5.65 45.84-5.7 45.95-5.7L45.95-5.7Q47.09-5.8 48.89-6.8L48.89-6.8Q52.24-8.6 53.8-10.5L53.8-10.5Q54.45-11.4 54.45-12.23 54.45-13.05 53.64-13.05L53.64-13.05Q52.99-13.05 51.89-12.5L51.89-12.5Q49.55-11.4 46.95-8.68 44.34-5.95 43.55-3.35L43.55-3.35Q43.3-2.55 43.3-1.78 43.3-1 43.95-0.3 44.59 0.4 45.95 0.4L45.95 0.4Q47.45 0.4 49.39-0.4L49.39-0.4Q55.05-2.7 58.09-7.35L58.09-7.35Q58.39-7.75 58.64-7.5L58.64-7.5Q58.84-7.4 58.84-7.25 58.84-7.1 58.7-6.9L58.7-6.9Q57.2-4.4 54.89-2.45L54.89-2.45Q50.45 1.35 46.24 1.35L46.24 1.35Q42.64 1.35 41.2-0.8L41.2-0.8Q40.64-1.65 40.64-2.85 40.64-4.05 41.3-5.7L41.3-5.7Q42.55-8.55 46.64-11.55 50.74-14.55 53.14-14.55ZM67.34-16.95L67.34-16.95 67.24-17.75Q67.44-19.85 69.67-21.9 71.89-23.95 75.29-25.8 78.69-27.65 86.09-28.9L86.09-28.9Q90.29-29.55 93.12-29.55 95.94-29.55 98.09-29.08 100.24-28.6 101.64-27.2 103.04-25.8 103.04-23.88 103.04-21.95 101.42-20.25 99.79-18.55 97.34-17.65L97.34-17.65Q92.59-15.9 88.24-15.7L88.24-15.7Q90.39-14.4 91.79-13.43 93.19-12.45 94.79-10.85 96.39-9.25 96.84-8.1 97.29-6.95 97.29-6.05L97.29-6.05Q97.29-3.1 95.04-0.4L95.04-0.4Q93.54 1.45 90.87 2.55 88.19 3.65 85.19 3.65L85.19 3.65Q78.79 3.65 78.19-0.85L78.19-0.85Q78.09-0.95 78.09-1.15L78.09-1.15Q76.19 1.9 74.94 1.9L74.94 1.9Q74.59 1.9 73.82 1.73 73.04 1.55 73.02 1.35 72.99 1.15 72.99 0.5 72.99-0.15 73.94-2.63 74.89-5.1 76.09-7.5L76.09-7.5Q78.44-12 80.74-16.2L80.74-16.2Q81.14-17.1 81.14-17.55 81.14-18 81.09-18.25L81.09-18.25Q81.29-19.65 83.52-21.93 85.74-24.2 87.54-24.2L87.54-24.2Q88.14-24.2 89.14-23.75 90.14-23.3 90.34-22.5L90.34-22.5Q90.39-22.15 90.37-22.08 90.34-22 90.09-22.1 89.84-22.2 89.79-22.2L89.79-22.2Q88.19-22.2 85.97-19.83 83.74-17.45 81.69-14L81.69-14Q77.44-7 75.59-2.5L75.59-2.5Q75.19-1.5 75.19-0.95L75.19-0.95Q75.19-0.2 75.84-0.2 76.49-0.2 77.59-1.58 78.69-2.95 79.14-2.93 79.59-2.9 79.87-2.65 80.14-2.4 80.24-2.13 80.34-1.85 80.39-1.35 80.44-0.85 80.49-0.7L80.49-0.7Q81.29 2.85 85.54 2.85L85.54 2.85Q85.64 2.85 85.74 2.85L85.74 2.85Q89.19 2.85 91.64 1.25L91.64 1.25Q94.34-0.55 94.34-3.23 94.34-5.9 91.84-8.85L91.84-8.85Q91.04-9.75 89.49-11.1L89.49-11.1Q86.19-13.95 86.09-14.75 85.99-15.55 86.77-16.07 87.54-16.6 88.19-16.6L88.19-16.6Q90.64-16.6 94.89-18.35L94.89-18.35Q101.14-20.9 101.59-24L101.59-24Q101.59-24.2 101.59-24.3L101.59-24.3Q101.59-25.2 100.79-26L100.79-26Q99.44-27.45 95.09-27.45L95.09-27.45Q89.14-27.45 81.24-25.3L81.24-25.3Q76.44-24 72.79-21.6L72.79-21.6Q68.79-18.95 68.79-15.95L68.79-15.95Q68.79-15.3 69.19-14.68 69.59-14.05 70.12-13.78 70.64-13.5 71.49-13.18 72.34-12.85 72.72-12.68 73.09-12.5 72.97-12.25 72.84-12 72.24-12.1L72.24-12.1Q70.59-12.2 68.94-13.48 67.29-14.75 67.29-16.45L67.29-16.45Q67.29-16.7 67.34-16.95ZM111.54-5.5L111.54-5.5Q112.44-7.35 112.44-8.35 112.44-9.35 112.21-9.93 111.99-10.5 112.41-10.9 112.84-11.3 113.49-11.2L113.49-11.2Q114.49-10.95 114.49-8.95 114.49-6.95 112.14-3.7L112.14-3.7Q112.19-2.35 113.54-2.35 114.89-2.35 117.64-5.25L117.64-5.25Q118.94-6.75 119.26-7.2 119.59-7.65 119.84-7.53 120.09-7.4 120.09-7.3L120.09-7.3Q120.09-6.8 118.29-4.7L118.29-4.7Q115.44-1.2 113.24-1.2L113.24-1.2Q111.79-1.2 111.19-2.45L111.19-2.45Q110.19-1.4 109.24-0.5L109.24-0.5Q107.29 1.15 104.89 1.15L104.89 1.15Q103.54 1.15 102.64 0.5L102.64 0.5Q100.89-0.55 100.89-3.25L100.89-3.25Q100.89-6.2 102.89-9.25L102.89-9.25Q104.04-11.05 105.59-12.4L105.59-12.4Q108.04-14.55 110.24-14.55L110.24-14.55Q110.79-14.55 111.29-14.4L111.29-14.4Q112.79-13.9 112.79-12.5L112.79-12.5Q112.79-11.35 112.19-11.35L112.19-11.35Q111.94-11.45 111.94-12.1L111.94-12.1Q111.94-13 110.94-13L110.94-13Q109.19-13 106.44-9.8 103.69-6.6 103.14-3.35L103.14-3.35Q103.04-2.8 103.04-2.13 103.04-1.45 103.49-0.58 103.94 0.3 105.16 0.3 106.39 0.3 107.84-0.8 109.29-1.9 110.44-3.6L110.44-3.6 110.29-3.9Q110.09-4.7 110.49-5.2 110.89-5.7 111.54-5.5ZM129.09-5.5L129.09-5.5Q129.99-7.35 129.99-8.35 129.99-9.35 129.76-9.93 129.54-10.5 129.96-10.9 130.39-11.3 131.04-11.2L131.04-11.2Q132.04-10.95 132.04-8.95 132.04-6.95 129.69-3.7L129.69-3.7Q129.74-2.35 131.09-2.35 132.44-2.35 135.19-5.25L135.19-5.25Q136.49-6.75 136.81-7.2 137.14-7.65 137.39-7.53 137.64-7.4 137.64-7.3L137.64-7.3Q137.64-6.8 135.84-4.7L135.84-4.7Q132.99-1.2 130.79-1.2L130.79-1.2Q129.34-1.2 128.74-2.45L128.74-2.45Q127.74-1.4 126.79-0.5L126.79-0.5Q124.84 1.15 122.44 1.15L122.44 1.15Q121.09 1.15 120.19 0.5L120.19 0.5Q118.44-0.55 118.44-3.25L118.44-3.25Q118.44-6.2 120.44-9.25L120.44-9.25Q121.59-11.05 123.14-12.4L123.14-12.4Q125.59-14.55 127.79-14.55L127.79-14.55Q128.34-14.55 128.84-14.4L128.84-14.4Q130.34-13.9 130.34-12.5L130.34-12.5Q130.34-11.35 129.74-11.35L129.74-11.35Q129.49-11.45 129.49-12.1L129.49-12.1Q129.49-13 128.49-13L128.49-13Q126.74-13 123.99-9.8 121.24-6.6 120.69-3.35L120.69-3.35Q120.59-2.8 120.59-2.13 120.59-1.45 121.04-0.58 121.49 0.3 122.71 0.3 123.94 0.3 125.39-0.8 126.84-1.9 127.99-3.6L127.99-3.6 127.84-3.9Q127.64-4.7 128.04-5.2 128.44-5.7 129.09-5.5ZM138.58 0.4L138.58 0.4Q136.78 1.3 136.28 1.3 135.78 1.3 135.78 1.15 135.78 1 135.86 0.83 135.93 0.65 136.56-1.05 137.18-2.75 138.13-5.35 139.08-7.95 139.78-9.7L139.78-9.7Q138.63-8.45 137.08-6.25L137.08-6.25Q136.83-5.9 136.41-6.05 135.98-6.2 136.68-7.1L136.68-7.1Q138.33-9.1 140.83-12.85L140.83-12.85Q140.08-13.25 140.08-13.63 140.08-14 140.18-14.2L140.18-14.2Q140.43-14.8 141.08-14.45L141.08-14.45Q141.38-14.35 141.48-14.35L141.48-14.35Q143.68-20.15 146.98-24.7L146.98-24.7Q148.78-27.25 150.73-28.43 152.68-29.6 154.38-29.6L154.38-29.6Q155.58-29.6 156.68-29.03 157.78-28.45 157.78-27.15L157.78-27.15Q157.78-24.65 153.48-19.9L153.48-19.9Q151.18-17.45 148.33-15.4 145.48-13.35 143.28-12.4L143.28-12.4Q141.33-8.1 139.83-3.4L139.83-3.4 143.08-7.65Q143.03-8.1 143.03-8.6L143.03-8.6Q143.03-10.1 143.68-10.45L143.68-10.45Q144.03-10.6 144.13-9.85L144.13-9.85 144.33-9.15Q148.18-13.65 149.88-14.45L149.88-14.45Q150.68-14.85 151.33-14.85 151.98-14.85 152.48-14.5 152.98-14.15 152.98-13.75L152.98-13.75Q152.98-13.05 151.83-12.5L151.83-12.5Q146.33-9.85 144.58-8L144.58-8Q145.78-3.8 146.93-1.4 148.08 1 150.56 4 153.03 7 155.08 7L155.08 7Q156.78 7 156.48 5.5L156.48 5.5Q156.28 4.15 155.66 3.18 155.03 2.2 155.53 2.2L155.53 2.2Q155.98 2.25 156.48 2.65L156.48 2.65Q156.78 3 157.18 3.88 157.58 4.75 157.58 5.35L157.58 5.35Q157.53 6.75 156.23 7.55 154.93 8.35 153.73 8.35L153.73 8.35Q151.38 8.35 149.13 6.03 146.88 3.7 145.38 0.4 143.88-2.9 143.28-6.35L143.28-6.35Q142.38-5.1 141.28-3.35L141.28-3.35Q139.03 0.1 138.58 0.4ZM154.93-24.3Q156.28-26.55 156.28-27.45 156.28-28.35 155.53-28.35 154.78-28.35 153.63-27.45L153.63-27.45Q150.43-25 148.23-21.88 146.03-18.75 143.88-14.1L143.88-14.1Q148.53-16.25 152.33-20.6L152.33-20.6Q153.58-22.05 154.93-24.3Z" opacity="1" transform="matrix(1,0,0,1,0,0)" fill="currentColor" class="wordmark-text-0" data-fill-palette-color="primary" id="text-0"></path></svg></g></svg></g></svg></g></svg></g><g transform="matrix(1,0,0,1,111.33180738511714,0)"><svg viewBox="0 0 174.83398522976563 131.83220774070546" height="131.83220774070546" width="174.83398522976563"><g><svg version="1.1" xmlns="http://www.w3.org/2000/svg" xmlns:xlink="http://www.w3.org/1999/xlink" x="8" y="0" viewBox="0 0 100 83" enable-background="new 0 0 100 83" xml:space="preserve" height="131.83220774070546" width="158.83398522976563" class="icon-icon-0" data-fill-palette-color="accent" id="icon-0"><path d="M99.981 2.312C99.884 1.021 98.816 0 97.5 0h-95C1.184 0 0.116 1.021 0.019 2.312L0 66.5C0 67.881 1.119 69 2.5 69h95c1.381 0 2.5-1.119 2.5-2.5L99.981 2.312zM96 57H4V4h92V57z" fill="currentColor" data-fill-palette-color="accent"></path><path d="M66 81c-4-1-5-4-5-8v-1H50 39v1c0 4-1 7-5 8-0.97 0.242-1 2 0 2h16 16C67 83 66.97 81.242 66 81z" fill="currentColor" data-fill-palette-color="accent"></path></svg></g></svg></g><g><rect width="20.686828061462023" height="8.602579265481337" y="122.22962847522412" x="286.1657926148828" fill="currentColor" data-fill-palette-color="secondary"></rect><rect width="20.686828061462023" height="8.602579265481337" y="122.22962847522412" x="90.64497932365512" fill="currentColor" data-fill-palette-color="secondary"></rect></g></svg></g><defs></defs></svg><rect width="349.85055235063055" height="247.2" fill="none" stroke="none" visibility="hidden"></rect></g></svg></g></svg>